<?xml version="1.0" standalone="no"?>
<!DOCTYPE svg PUBLIC "-//W3C//DTD SVG 20010904//EN"
 "http://www.w3.org/TR/2001/REC-SVG-20010904/DTD/svg10.dtd">
<svg version="1.0" xmlns="http://www.w3.org/2000/svg"
 width="692.000000pt" height="692.000000pt" viewBox="0 0 692.000000 692.000000"
 preserveAspectRatio="xMidYMid meet">
<metadata>
Created by potrace 1.14, written by Peter Selinger 2001-2017
</metadata>
<g transform="translate(0.000000,692.000000) scale(0.100000,-0.100000)"
fill="#000000" stroke="none">
<path d="M600 3460 l0 -3460 113 57 c61 31 113 61 115 65 2 4 9 8 15 8 7 0 49
19 94 43 45 23 158 80 250 127 93 47 170 87 173 90 3 3 70 38 150 78 80 41
206 105 281 143 75 38 141 69 147 69 6 0 12 4 14 9 2 5 21 17 43 28 168 82
371 188 373 195 2 4 8 8 13 8 5 0 32 11 61 25 28 14 53 25 55 25 2 0 3 -218 3
-485 l0 -485 203 104 c111 57 234 120 272 140 39 20 75 36 82 36 6 0 13 4 15
8 2 5 66 41 143 80 342 172 390 198 397 207 4 6 8 6 8 1 0 -5 6 -4 13 2 7 6
120 66 252 133 340 173 447 228 459 238 6 5 20 11 31 13 16 2 21 -4 25 -39 4
-24 4 -43 1 -43 -6 0 -6 -61 -1 -185 1 -27 1 -54 0 -60 -2 -11 -1 -209 1 -222
1 -4 0 -12 -1 -18 -2 -13 -1 -149 2 -203 2 -23 1 -42 -2 -42 -3 0 -4 -19 -3
-42 1 -24 2 -58 2 -76 l1 -33 193 100 c105 54 275 141 377 192 102 52 187 96
190 99 3 3 89 48 193 100 103 52 235 120 295 151 259 133 392 200 398 199 4
-1 10 2 13 7 3 5 56 33 116 63 61 30 113 59 117 64 4 6 7 1126 7 2491 l0 2481
-212 108 c-117 60 -279 143 -362 186 -82 42 -229 117 -325 166 -96 49 -176 92
-178 97 -2 4 -12 7 -22 7 -10 0 -20 3 -22 8 -4 9 -90 52 -105 52 -6 0 -13 4
-15 8 -1 4 -43 28 -93 52 -49 24 -116 59 -147 77 -32 17 -58 30 -58 27 0 -2
-19 8 -42 22 -22 14 -46 27 -52 28 -6 1 -18 6 -25 11 -42 25 -221 115 -231
115 -7 0 -10 -8 -7 -20 3 -11 2 -20 -1 -20 -6 0 -7 -69 -2 -180 1 -25 1 -49 0
-55 -2 -10 -1 -209 1 -223 1 -4 0 -11 -1 -17 -1 -5 -1 -46 0 -90 0 -44 1 -87
1 -95 -2 -186 -1 -252 4 -260 4 -6 -78 33 -182 86 -370 190 -601 308 -758 389
-88 45 -268 138 -400 205 -353 181 -428 220 -442 232 -7 6 -13 8 -13 4 0 -3
-25 8 -55 25 l-55 31 0 -492 c0 -401 -2 -490 -13 -482 -7 6 -89 50 -182 98
-183 93 -481 246 -530 272 -16 9 -32 17 -35 17 -10 2 -105 50 -110 56 -3 3
-36 21 -75 40 -245 123 -402 204 -415 214 -8 7 -26 16 -40 20 -14 4 -36 15
-49 24 -13 8 -30 16 -38 17 -8 1 -20 7 -27 13 -7 6 -97 53 -199 106 l-187 95
0 -3460z"/>
</g>
</svg>
